<?xml version="1.0" encoding="UTF-8" standalone="no"?>
<svg
   viewBox="0 0 24 24"
   version="1.1"
   id="svg1"
   sodipodi:docname="circle-outline1.svg"
   inkscape:version="1.3 (0e150ed, 2023-07-21)"
   xmlns:inkscape="http://www.inkscape.org/namespaces/inkscape"
   xmlns:sodipodi="http://sodipodi.sourceforge.net/DTD/sodipodi-0.dtd"
   xmlns="http://www.w3.org/2000/svg"
   xmlns:svg="http://www.w3.org/2000/svg">
  <defs
     id="defs1" />
  <sodipodi:namedview
     id="namedview1"
     pagecolor="#ffffff"
     bordercolor="#000000"
     borderopacity="0.25"
     inkscape:showpageshadow="2"
     inkscape:pageopacity="0.0"
     inkscape:pagecheckerboard="0"
     inkscape:deskcolor="#d1d1d1"
     inkscape:zoom="26.468522"
     inkscape:cx="11.995381"
     inkscape:cy="11.674245"
     inkscape:window-width="1728"
     inkscape:window-height="1051"
     inkscape:window-x="0"
     inkscape:window-y="38"
     inkscape:window-maximized="1"
     inkscape:current-layer="svg1" />
  <path
     d="m 11.624583,20 a 8,8 0 0 1 -8.0000129,-8 8,8 0 0 1 8.0000129,-8 8,8 0 0 1 8,8 8,8 0 0 1 -8,8 m 0,-18 A 10,10 0 0 0 1.6245709,12 10,10 0 0 0 11.624583,22 a 10,10 0 0 0 10,-10 10,10 0 0 0 -10,-10 z"
     id="path1" />
  <circle
     style="fill:#00C600"
     id="path2"
     cx="6.122858"
     cy="4.6848102"
     r="3" />
  <circle
     style="fill:#00C600"
     id="path2-5"
     cx="7.4380474"
     cy="19.905687"
     r="3" />
  <circle
     style="fill:#00C600"
     id="path2-5-3"
     cx="20.356678"
     cy="11.652838"
     r="3" />
</svg>
