<?xml version="1.0" encoding="UTF-8" standalone="no"?>
<svg
   viewBox="0 0 24 24"
   version="1.1"
   id="svg1"
   sodipodi:docname="circle-outline1.svg"
   inkscape:version="1.3 (0e150ed, 2023-07-21)"
   xmlns:inkscape="http://www.inkscape.org/namespaces/inkscape"
   xmlns:sodipodi="http://sodipodi.sourceforge.net/DTD/sodipodi-0.dtd"
   xmlns="http://www.w3.org/2000/svg"
   xmlns:svg="http://www.w3.org/2000/svg">
  <path
     d="m 12,20 a 8,8 0 0 1 -8,-8 8,8 0 0 1 8,-8 8,8 0 0 1 8,8 8,8 0 0 1 -8,8 m 0,-18 A 10,10 0 0 0 2,12 10,10 0 0 0 12,22 a 10,10 0 0 0 10,-10 10,10 0 0 0 -10,-10 z"
     id="path1" />
  <circle
     style="fill:#00C600"
     id="path2"
     cx="6.498275"
     cy="4.6848102"
     r="3" />
  <circle
     style="fill:#00C600"
     id="path2-5"
     cx="7.8134644"
     cy="19.905687"
     r="3" />
  <circle
     style="fill:#00C600"
     id="path2-5-3"
     cx="20.732095"
     cy="11.652838"
     r="3" />
</svg>
